Coordinates
version=1
nRows=17
nColumns=40
inDegrees=yes

Units are S.I. units (second, meters, Newtons, ...)
Angles are in degrees.

endheader
time	pelvis_tilt	pelvis_list	pelvis_rotation	pelvis_tx	pelvis_ty	pelvis_tz	hip_flexion_r	hip_adduction_r	hip_rotation_r	knee_angle_r	knee_angle_r_beta	ankle_angle_r	subtalar_angle_r	mtp_angle_r	hip_flexion_l	hip_adduction_l	hip_rotation_l	knee_angle_l	knee_angle_l_beta	ankle_angle_l	subtalar_angle_l	mtp_angle_l	lumbar_extension	lumbar_bending	lumbar_rotation	arm_flex_r	arm_add_r	arm_rot_r	elbow_flex_r	pro_sup_r	wrist_flex_r	wrist_dev_r	arm_flex_l	arm_add_l	arm_rot_l	elbow_flex_l	pro_sup_l	wrist_flex_l	wrist_dev_l
     32.77250000	     -5.22959625	     -3.36555283	     13.80887997	      1.00762361	      0.91902672	      0.45890679	     -2.25411839	      1.13472648	    -18.06594376	     15.39781289	     15.39781289	     18.37285885	     -6.55234865	      0.40988414	     27.54241398	     -2.27226102	      5.18632437	     23.43393543	     23.43393543	      4.47995272	    -11.74627075	     -0.95067516	     -7.44935060	      0.97064472	      6.83543271	     66.39572312	    -18.13702410	      0.51823860	     72.57023232	     44.83750333	      0.00000000	      0.00000000	    -15.35838149	    -11.86080870	     25.28780698	     31.69920205	     43.41330537	      0.00000000	      0.00000000
     32.79542857	     -5.31860182	     -3.30573657	     13.28657871	      1.00970116	      0.91991795	      0.45376661	     -2.75942112	      0.61751252	    -18.40286113	     15.15886631	     15.15886631	     17.35984055	     -5.51604516	     -1.72242853	     27.22218824	     -2.06057072	      4.93798425	     23.92709960	     23.92709960	      6.04156186	    -11.78745060	      1.33477554	     -7.25829285	      0.93146105	      6.76867882	     65.99221880	    -17.55810016	     -0.64585739	     70.13812565	     45.03048249	      0.00000000	      0.00000000	    -14.35537174	    -11.33239235	     21.05106791	     31.24686334	     44.27029873	      0.00000000	      0.00000000
     32.81835714	     -5.42901084	     -3.29849386	     12.73710389	      1.01181383	      0.92073156	      0.44874420	     -3.07831415	      0.16002238	    -18.38002083	     15.22864899	     15.22864899	     16.97540093	     -4.80240049	     -1.80409535	     26.76442343	     -1.93341495	      4.61799590	     24.02033909	     24.02033909	      6.50400143	    -12.15294856	      1.19073478	     -7.07124063	      0.96938244	      6.92302533	     64.87940592	    -17.64080324	     -0.79119430	     69.32767009	     45.06418315	      0.00000000	      0.00000000	    -13.18666416	    -11.62998242	     20.57574062	     31.52358427	     44.36984326	      0.00000000	      0.00000000
     32.84128571	     -5.50865637	     -3.37641317	     12.19471783	      1.01371610	      0.92147167	      0.44376647	     -3.33027313	     -0.18842692	    -18.11770407	     15.38657418	     15.38657418	     16.59895856	     -4.44417944	     -1.79140216	     26.34619629	     -1.89615557	      4.30086333	     24.16767214	     24.16767214	      6.91994176	    -12.49384036	      1.07579254	     -6.99794038	      1.19570339	      6.67831896	     63.66050546	    -17.31533519	     -0.68136084	     68.85736009	     45.07147241	      0.00000000	      0.00000000	    -11.97873492	    -11.84673490	     20.38943776	     31.84138400	     44.41547411	      0.00000000	      0.00000000
     32.86421429	     -5.63867730	     -3.29690425	     11.61925986	      1.01571824	      0.92222827	      0.43861058	     -3.59895663	     -0.82743263	    -18.37359429	     15.52061541	     15.52061541	     16.19736611	     -3.23855373	     -2.23883086	     25.80462003	     -1.67386284	      3.91531230	     24.08239507	     24.08239507	      7.33466341	    -12.81340659	      1.18539127	     -6.78480484	      1.19442464	      7.10579441	     61.94390438	    -17.69575988	     -1.43433492	     67.16265896	     45.15379001	      0.00000000	      0.00000000	    -10.45603051	    -12.03089362	     19.58126901	     32.06103443	     44.56603536	      0.00000000	      0.00000000
     32.88714286	     -5.73090975	     -3.28484426	     11.04222877	      1.01753862	      0.92288666	      0.43358541	     -3.80616261	     -1.40212668	    -18.54083707	     15.76907520	     15.76907520	     15.79128673	     -2.16275775	     -2.86666134	     25.31772691	     -1.52139672	      3.57794787	     24.10100306	     24.10100306	      7.68602679	    -13.18516360	      1.45279731	     -6.61539176	      1.29899121	      7.12494379	     60.14261786	    -17.56374776	     -2.29203587	     65.53443741	     45.23790087	      0.00000000	      0.00000000	     -8.84837838	    -12.04368901	     18.57493153	     32.07024436	     44.74846192	      0.00000000	      0.00000000
     32.91007143	     -5.80442246	     -3.29208014	     10.46229242	      1.01927888	      0.92346590	      0.42861197	     -3.94795866	     -1.95898975	    -18.53768723	     16.12475000	     16.12475000	     15.30926620	     -1.33832708	     -3.59422556	     24.85135285	     -1.38147679	      3.25299895	     24.16556937	     24.16556937	      8.07641066	    -13.55665168	      1.83417183	     -6.52833850	      1.46700267	      7.08268597	     58.11754337	    -17.31026304	     -3.17521786	     63.70194877	     45.32882562	      0.00000000	      0.00000000	     -7.12527998	    -11.98164004	     17.40800623	     32.02152312	     44.95446791	      0.00000000	      0.00000000
     32.93300000	     -5.89358961	     -3.30536594	      9.87134733	      1.02092073	      0.92389441	      0.42366675	     -3.96977652	     -2.53507337	    -18.42450505	     16.63582420	     16.63582420	     14.80210651	     -0.78770508	     -4.32627750	     24.43015835	     -1.23964490	      2.91414108	     24.26684856	     24.26684856	      8.50123913	    -13.92064753	      2.21842792	     -6.43751409	      1.65285014	      6.99828582	     55.79969862	    -17.05762477	     -3.86538359	     61.74890111	     45.41403026	      0.00000000	      0.00000000	     -5.30142514	    -11.94881321	     16.38082138	     32.08051360	     45.13669974	      0.00000000	      0.00000000
     32.95592857	     -5.97386974	     -3.32720657	      9.26967339	      1.02237884	      0.92419938	      0.41886387	     -3.82483210	     -3.13618029	    -18.17577602	     17.42547216	     17.42547216	     14.28440479	     -0.44240019	     -5.09834888	     24.05287185	     -1.10847610	      2.59668957	     24.41919064	     24.41919064	      8.91356242	    -14.29248164	      2.57300058	     -6.40002487	      1.84111665	      6.89519538	     53.23720942	    -16.85397351	     -4.39303965	     59.68229629	     45.49483540	      0.00000000	      0.00000000	     -3.36122613	    -11.95539884	     15.61268689	     32.27507018	     45.27880631	      0.00000000	      0.00000000
     32.97885714	     -5.95970466	     -3.35561756	      8.68592306	      1.02373328	      0.92441059	      0.41409394	     -3.68662140	     -3.72850641	    -17.81561198	     18.27248868	     18.27248868	     12.89274799	     -0.70107176	     -8.35763013	     23.72592643	     -0.97341403	      2.33683471	     24.86061081	     24.86061081	      9.86855524	    -14.55287447	      4.14599972	     -6.44520210	      2.08465932	      6.40785812	     51.04921710	    -15.66161525	     -6.39245960	     55.93298879	     45.68934736	      0.00000000	      0.00000000	     -1.15462621	    -11.48570443	     13.21181513	     31.22491709	     45.65780750	      0.00000000	      0.00000000
     33.00178571	     -5.70143394	     -3.57182995	      8.15162085	      1.02527703	      0.92485920	      0.40950010	     -3.66419018	     -4.08338979	    -17.43982681	     19.41806996	     19.41806996	     12.36860546	     -0.68523714	     -8.60714587	     23.10609151	     -1.08464937	      2.12631389	     25.15256633	     25.15256633	     10.26929882	    -14.93067158	      4.06875902	     -6.84020778	      2.58021538	      5.77859848	     47.98047594	    -15.02886582	     -6.19697166	     54.64138842	     45.70989958	      0.00000000	      0.00000000	      0.69349207	    -11.70966215	     13.04366589	     31.85906000	     45.70900032	      0.00000000	      0.00000000
     33.02471429	     -5.84838953	     -3.48528092	      7.45796789	      1.02608328	      0.92428070	      0.40499462	     -2.44706117	     -4.99967073	    -16.42922572	     21.84075453	     21.84075453	     10.64900310	     -2.58951263	    -12.94400994	     23.06994854	     -0.80670660	      1.82051784	     25.77310976	     25.77310976	     11.16185056	    -15.44050511	      5.47002301	     -6.70208696	      2.60689179	      6.32132792	     45.27258899	    -15.30663883	     -7.66051728	     49.66264531	     45.92582356	      0.00000000	      0.00000000	      3.54442946	    -11.51621043	     12.58797342	     31.48976559	     45.80658208	      0.00000000	      0.00000000
     33.04764286	     -5.76371294	     -3.50276019	      6.86250389	      1.02696781	      0.92372420	      0.40055116	     -1.17539795	     -5.88444244	    -15.79172530	     24.94470126	     24.94470126	      9.96503340	     -3.51333554	    -14.14374061	     22.84039063	     -0.69052620	      1.47298758	     26.41498893	     26.41498893	     11.67251789	    -15.87856132	      5.41968537	     -6.95782501	      2.80840328	      6.04776428	     41.82702441	    -15.09119769	     -7.72567759	     47.63222007	     45.98058644	      0.00000000	      0.00000000	      5.68246730	    -11.73244303	     12.41271707	     32.31577841	     45.86095578	      0.00000000	      0.00000000
     33.07057143	     -5.62047501	     -3.67990182	      6.24354102	      1.02765471	      0.92297887	      0.39643150	      0.28322511	     -6.35139833	    -14.35137302	     28.12860371	     28.12860371	      7.74151610	     -6.83697066	    -18.09290023	     22.71384466	     -0.73532090	      1.28523670	     27.33400634	     27.33400634	     12.75508668	    -16.27647659	      6.63155975	     -7.17547700	      3.20807628	      6.23275811	     38.80798503	    -14.93937825	     -8.85734365	     43.25595476	     46.16475163	      0.00000000	      0.00000000	      8.41075912	    -11.70273688	     12.80471311	     32.42157494	     45.83927338	      0.00000000	      0.00000000
     33.09350000	     -5.44703635	     -3.62203958	      5.65551635	      1.02817268	      0.92175612	      0.39226018	      2.23407317	     -7.35639657	    -13.54071721	     32.50680167	     32.50680167	      6.71583655	     -8.35565414	    -19.15676932	     22.54572922	     -0.55209562	      0.93066349	     28.23247263	     28.23247263	     13.41740546	    -16.71075343	      6.51231952	     -7.55142110	      3.32777167	      5.75791213	     35.18715306	    -14.51961016	     -8.94371469	     41.17312217	     46.22140649	      0.00000000	      0.00000000	     10.59313931	    -12.05066026	     12.71513685	     33.25017707	     45.88180086	      0.00000000	      0.00000000
     33.11642857	     -5.31779734	     -3.63684328	      5.03630112	      1.02844041	      0.92008146	      0.38845459	      4.60506652	     -8.10717006	    -12.27939810	     37.31130145	     37.31130145	      5.29776813	    -10.81593017	    -19.84200295	     22.54170673	     -0.46263227	      0.58446252	     29.29773328	     29.29773328	     14.17287312	    -17.16427739	      6.53736526	     -7.81410004	      3.53053106	      5.65079674	     31.46095482	    -14.38913511	     -9.10463304	     38.63697536	     46.30008910	      0.00000000	      0.00000000	     12.93772940	    -12.28057768	     12.68158543	     34.18488388	     45.91982549	      0.00000000	      0.00000000
     33.13935714	     -5.11095795	     -3.66062308	      4.45012079	      1.02854377	      0.91819888	      0.38487970	      7.09056437	     -8.68009943	    -10.93402793	     42.26090026	     42.26090026	      3.71400710	    -13.48935785	    -19.90411309	     22.53040163	     -0.40347319	      0.24237480	     30.48703143	     30.48703143	     15.09646117	    -17.49837716	      6.61469099	     -8.18074481	      3.75291394	      5.48614216	     27.70655619	    -14.20117713	     -9.26961153	     36.03850571	     46.38256450	      0.00000000	      0.00000000	     15.33434936	    -12.57152288	     12.67971469	     35.12828925	     45.95436279	      0.00000000	      0.00000000
